<svg xmlns="http://www.w3.org/2000/svg" version="1.1" xmlns:xlink="http://www.w3.org/1999/xlink" xmlns:svgjs="http://svgjs.com/svgjs" width="1440" height="560" preserveAspectRatio="none" viewBox="0 0 1440 560"><g mask="url(&quot;#SvgjsMask1014&quot;)" fill="none"><rect width="1440" height="560" x="0" y="0" fill="#0e2a47"></rect><path d="M1179.897,262.484C1223.926,262.924,1255.027,222.966,1274.471,183.461C1291.46,148.944,1290.746,109.28,1271.773,75.813C1252.518,41.847,1218.928,15.625,1179.897,16.636C1142.244,17.612,1114.159,47.418,1095.912,80.369C1078.345,112.092,1073.357,148.672,1088.543,181.601C1106.798,221.186,1136.307,262.048,1179.897,262.484" fill="rgba(28, 83, 142, 0.4)" class="triangle-float2"></path><path d="M650.3329400874371 270.3204408033697L639.337124818381 348.5597318417418 762.1939690104671 325.93380922613994z" fill="rgba(28, 83, 142, 0.4)" class="triangle-float3"></path><path d="M63.31089832435499 304.61995452779297L46.34072650350864 411.10847313185167 134.9183466814977 378.8688559649263z" fill="rgba(28, 83, 142, 0.4)" class="triangle-float3"></path><path d="M1241.159,394.515C1298.79,398.841,1354.814,365.48,1381.623,314.281C1406.854,266.096,1389.619,210.276,1362.241,163.278C1335.098,116.683,1294.982,76.466,1241.159,73.157C1181.619,69.497,1117.298,92.967,1091.219,146.616C1067.047,196.341,1104.404,248.312,1133.018,295.62C1160.114,340.418,1188.951,390.596,1241.159,394.515" fill="rgba(28, 83, 142, 0.4)" class="triangle-float3"></path><path d="M917.8193311934676 627.679974010764L961.3367790014853 501.29612871802925 834.9529337087506 457.7786809100116 791.4354859007328 584.1625262027463z" fill="rgba(28, 83, 142, 0.4)" class="triangle-float1"></path><path d="M668.112,530.928C699.62,532.554,731.118,519.274,747.542,492.336C764.602,464.354,765.059,428.318,747.568,400.603C731.08,374.477,698.967,364.933,668.112,366.478C640.069,367.882,615.079,383.439,601.34,407.926C587.9,431.881,588.615,460.669,601.72,484.809C615.499,510.191,639.269,529.439,668.112,530.928" fill="rgba(28, 83, 142, 0.4)" class="triangle-float1"></path><path d="M1249.7405917289082 455.31702106554746L1357.7332693231385 373.9387014829698 1276.354949740561 265.9460238887393 1168.3622721463305 347.324343471317z" fill="rgba(28, 83, 142, 0.4)" class="triangle-float2"></path><path d="M446.56677425547946 444.9998540714744L511.83863723582476 525.7611442063945 545.842700130287 441.5981351735702z" fill="rgba(28, 83, 142, 0.4)" class="triangle-float1"></path></g><defs><mask id="SvgjsMask1014"><rect width="1440" height="560" fill="#ffffff"></rect></mask><style>
            @keyframes float1 {
                0%{transform: translate(0, 0)}
                50%{transform: translate(-10px, 0)}
                100%{transform: translate(0, 0)}
            }

            .triangle-float1 {
                animation: float1 5s infinite;
            }

            @keyframes float2 {
                0%{transform: translate(0, 0)}
                50%{transform: translate(-5px, -5px)}
                100%{transform: translate(0, 0)}
            }

            .triangle-float2 {
                animation: float2 4s infinite;
            }

            @keyframes float3 {
                0%{transform: translate(0, 0)}
                50%{transform: translate(0, -10px)}
                100%{transform: translate(0, 0)}
            }

            .triangle-float3 {
                animation: float3 6s infinite;
            }
        </style></defs></svg>